<svg width="40" height="40" viewBox="0 0 40 40" fill="none" xmlns="http://www.w3.org/2000/svg">
<path fill-rule="evenodd" clip-rule="evenodd" d="M35.6252 19.1925C28.3585 17.3192 22.6802 11.6408 20.8068 4.37418L20.0002 1.24585L19.1935 4.37418C17.3202 11.6408 11.6418 17.3192 4.37516 19.1925L1.24683 19.9992L4.37516 20.8075C11.6418 22.6808 17.3202 28.3592 19.1935 35.6242L20.0002 38.7542L20.8068 35.6242C22.6802 28.3592 28.3585 22.6808 35.6252 20.8075L38.7535 19.9992L35.6252 19.1925Z" fill="url(#paint0_linear_473_694)"/>
<path fill-rule="evenodd" clip-rule="evenodd" d="M31.2518 12.9115C31.2518 10.9749 33.3752 8.74653 35.4168 8.74653C33.4518 8.74653 31.2518 6.49487 31.2518 4.5832C31.2518 6.49487 29.0718 8.74653 27.0885 8.74653C28.9968 8.74653 31.2518 10.9632 31.2518 12.9115Z" fill="url(#paint1_linear_473_694)"/>
<defs>
<linearGradient id="paint0_linear_473_694" x1="1.24683" y1="38.7542" x2="45.4481" y2="27.4705" gradientUnits="userSpaceOnUse">
<stop stop-color="#FC6736"/>
<stop offset="1" stop-color="#FC36D0"/>
</linearGradient>
<linearGradient id="paint1_linear_473_694" x1="1.24683" y1="38.7542" x2="45.4481" y2="27.4705" gradientUnits="userSpaceOnUse">
<stop stop-color="#FC6736"/>
<stop offset="1" stop-color="#FC36D0"/>
</linearGradient>
</defs>
</svg>
