<svg width="40" height="40" viewBox="0 0 40 40" fill="none" xmlns="http://www.w3.org/2000/svg">
<path fill-rule="evenodd" clip-rule="evenodd" d="M19.9998 34.0999C17.9332 34.0999 16.2498 32.5332 16.0165 30.5332H23.9832C23.7498 32.5332 22.0665 34.0999 19.9998 34.0999ZM31.1498 22.1166V14.8332C31.1498 14.5499 31.1332 14.2666 31.1165 13.9999C30.4665 14.1999 29.7665 14.3166 29.0498 14.3166C25.3498 14.3166 22.3332 11.3166 22.3332 7.5999C22.3332 6.3499 22.6665 5.18323 23.2832 4.18323C22.2498 3.8499 21.1498 3.68323 19.9998 3.68323C13.8498 3.68323 8.84984 8.68323 8.84984 14.8332V22.1166L6.1665 24.8499V30.5332H13.5165C13.7665 33.9166 16.5498 36.5999 19.9998 36.5999C23.4498 36.5999 26.2498 33.9166 26.4832 30.5332H33.8332V24.8499L31.1498 22.1166Z" fill="url(#paint0_linear_473_700)"/>
<path fill-rule="evenodd" clip-rule="evenodd" d="M29.0499 11.8166C29.6165 11.8166 30.1499 11.6999 30.6499 11.4999C32.1832 10.8666 33.2665 9.36657 33.2665 7.5999C33.2665 5.28324 31.3832 3.3999 29.0499 3.3999C27.6165 3.3999 26.3499 4.11657 25.5832 5.1999C25.1165 5.88324 24.8332 6.6999 24.8332 7.5999C24.8332 9.93324 26.7332 11.8166 29.0499 11.8166Z" fill="url(#paint1_linear_473_700)"/>
<defs>
<linearGradient id="paint0_linear_473_700" x1="6.1665" y1="36.5999" x2="39.3924" y2="29.5313" gradientUnits="userSpaceOnUse">
<stop stop-color="#FC6736"/>
<stop offset="1" stop-color="#FC36D0"/>
</linearGradient>
<linearGradient id="paint1_linear_473_700" x1="6.1665" y1="36.5999" x2="39.3924" y2="29.5313" gradientUnits="userSpaceOnUse">
<stop stop-color="#FC6736"/>
<stop offset="1" stop-color="#FC36D0"/>
</linearGradient>
</defs>
</svg>
