<svg width="40" height="40" viewBox="0 0 40 40" fill="none" xmlns="http://www.w3.org/2000/svg">
<path fill-rule="evenodd" clip-rule="evenodd" d="M37.6375 11.6325L34.6259 10.2025L33.9109 11.7075C31.6825 16.3975 28.2259 19.6742 24.2425 21.0442L23.9075 21.1408C22.6459 21.5375 21.3392 21.7625 19.9992 21.7625C14.2792 21.7608 9.07922 18.0025 6.08922 11.7075L5.37422 10.2025L2.36255 11.6325L3.07755 13.1375C4.07922 15.2442 5.30588 17.1025 6.69922 18.6992L3.01088 22.3908L5.36755 24.7458L9.07755 21.0342C10.5759 22.2742 12.2109 23.2458 13.9409 23.9292L12.5059 28.8675L15.7075 29.7975L17.1475 24.8392C18.0809 25.0042 19.0309 25.0958 19.9975 25.0958H20.0025C20.9259 25.0958 21.8342 25.0142 22.7259 24.8642L24.1592 29.7975L27.3592 28.8675L25.9392 23.9742C27.6859 23.2992 29.3392 22.3358 30.8525 21.0958L34.5009 24.7458L36.8592 22.3908L33.2392 18.7692C34.6592 17.1575 35.9059 15.2758 36.9225 13.1375L37.6375 11.6325Z" fill="url(#paint0_linear_473_702)"/>
<defs>
<linearGradient id="paint0_linear_473_702" x1="2.36255" y1="29.7975" x2="38.9214" y2="12.996" gradientUnits="userSpaceOnUse">
<stop stop-color="#FC6736"/>
<stop offset="1" stop-color="#FC36D0"/>
</linearGradient>
</defs>
</svg>
