<svg width="18" height="18" viewBox="0 0 18 18" fill="none" xmlns="http://www.w3.org/2000/svg">
<path d="M10.8608 4.19357C11.6744 3.37998 12.9935 3.37998 13.8071 4.19357C14.6207 5.00716 14.6207 6.32625 13.8071 7.13985L12.7868 8.16012C12.5428 8.4042 12.5428 8.79993 12.7868 9.04401C13.0309 9.28809 13.4266 9.28809 13.6707 9.04401L14.691 8.02373C15.9928 6.72198 15.9928 4.61143 14.691 3.30968C13.3893 2.00794 11.2787 2.00794 9.97696 3.30968L7.47696 5.80968C6.17521 7.11143 6.17521 9.22198 7.47696 10.5237C7.53773 10.5845 7.60035 10.6425 7.66465 10.6977C7.92654 10.9226 8.32113 10.8926 8.54599 10.6307C8.77085 10.3688 8.74083 9.97419 8.47895 9.74933C8.43862 9.7147 8.39922 9.67821 8.36085 9.63985C7.54725 8.82625 7.54725 7.50716 8.36085 6.69357L10.8608 4.19357Z" fill="#FEFEFE"/>
<path d="M10.3366 7.30236C10.0748 7.0775 9.68017 7.10752 9.45531 7.36941C9.23045 7.63129 9.26047 8.02588 9.52236 8.25074C9.56268 8.28537 9.60209 8.32186 9.64046 8.36023C10.454 9.17382 10.454 10.4929 9.64046 11.3065L7.14046 13.8065C6.32687 14.6201 5.00777 14.6201 4.19418 13.8065C3.38059 12.9929 3.38059 11.6738 4.19418 10.8602L5.21446 9.83995C5.45854 9.59587 5.45854 9.20014 5.21446 8.95606C4.97038 8.71199 4.57465 8.71199 4.33057 8.95606L3.3103 9.97634C2.00855 11.2781 2.00855 13.3886 3.3103 14.6904C4.61204 15.9921 6.72259 15.9921 8.02434 14.6904L10.5243 12.1904C11.8261 10.8886 11.8261 8.77809 10.5243 7.47634C10.4636 7.41558 10.401 7.35758 10.3366 7.30236Z" fill="#FEFEFE"/>
</svg>
