<svg width="20" height="20" viewBox="0 0 20 20" fill="none" xmlns="http://www.w3.org/2000/svg">
<path fill-rule="evenodd" clip-rule="evenodd" d="M16.2666 16.1592C15.4199 13.4817 13.1449 11.9475 10.0224 11.9475H9.99991C6.86908 11.93 4.58241 13.475 3.73408 16.1592L3.63574 16.4709L3.91408 16.6409C5.54574 17.6359 7.58074 18.14 9.96074 18.14C9.98741 18.14 10.0141 18.14 10.0399 18.14C12.4532 18.14 14.4316 17.6492 16.0866 16.6409L16.3649 16.4709L16.2666 16.1592Z" fill="#FEFEFE"/>
<path fill-rule="evenodd" clip-rule="evenodd" d="M10.0003 10.0907C12.2695 10.0907 14.1162 8.24486 14.1162 5.9757C14.1162 3.7057 12.2695 1.85986 10.0003 1.85986C7.73118 1.85986 5.88535 3.7057 5.88535 5.9757C5.88535 8.24486 7.73118 10.0907 10.0003 10.0907Z" fill="#FEFEFE"/>
</svg>
