<svg width="24" height="24" viewBox="0 0 24 24" fill="none" xmlns="http://www.w3.org/2000/svg">
<path fill-rule="evenodd" clip-rule="evenodd" d="M3.75195 10.5815C3.75195 6.70046 6.90995 3.54346 10.791 3.54346C14.671 3.54346 17.829 6.70046 17.829 10.5815C17.829 14.4625 14.671 17.6205 10.791 17.6205C6.90995 17.6205 3.75195 14.4625 3.75195 10.5815ZM22.247 21.0405L17.648 16.4535C19.004 14.8725 19.829 12.8235 19.829 10.5815C19.829 5.59846 15.774 1.54346 10.791 1.54346C5.80695 1.54346 1.75195 5.59846 1.75195 10.5815C1.75195 15.5655 5.80695 19.6205 10.791 19.6205C12.813 19.6205 14.676 18.9445 16.183 17.8175L20.835 22.4565L22.247 21.0405Z" fill="#FEFEFE"/>
</svg>
