<svg width="184" height="20" viewBox="0 0 184 20" fill="none" xmlns="http://www.w3.org/2000/svg">
<path d="M0.112 19V1.12H6.256C7.424 1.12 8.448 1.352 9.328 1.816C10.208 2.264 10.888 2.904 11.368 3.736C11.864 4.552 12.112 5.504 12.112 6.592C12.112 7.68 11.864 8.632 11.368 9.448C10.888 10.264 10.208 10.904 9.328 11.368C8.464 11.816 7.44 12.04 6.256 12.04H2.032V19H0.112ZM2.032 10.24H6.352C7.12 10.24 7.792 10.096 8.368 9.808C8.944 9.504 9.392 9.08 9.712 8.536C10.032 7.976 10.192 7.32 10.192 6.568C10.192 5.816 10.032 5.168 9.712 4.624C9.392 4.08 8.944 3.664 8.368 3.376C7.792 3.072 7.12 2.92 6.352 2.92H2.032V10.24ZM15.0299 19V0.831999H16.8299V19H15.0299ZM24.8343 19.288C23.9383 19.288 23.1223 19.08 22.3863 18.664C21.6503 18.232 21.0663 17.64 20.6343 16.888C20.2183 16.12 20.0103 15.24 20.0103 14.248V6.136H21.8103V14.032C21.8103 14.72 21.9463 15.328 22.2183 15.856C22.5063 16.368 22.8983 16.768 23.3943 17.056C23.9063 17.344 24.4903 17.488 25.1463 17.488C25.8023 17.488 26.3863 17.344 26.8983 17.056C27.4103 16.752 27.8103 16.328 28.0983 15.784C28.3863 15.224 28.5303 14.56 28.5303 13.792V6.136H30.3303V19H28.5303V16.504L28.9383 16.6C28.6343 17.432 28.1143 18.088 27.3783 18.568C26.6423 19.048 25.7943 19.288 24.8343 19.288ZM38.2561 19.288C37.0241 19.288 35.9441 18.976 35.0161 18.352C34.0881 17.728 33.4161 16.88 33.0001 15.808L34.5121 15.088C34.8801 15.872 35.3921 16.496 36.0481 16.96C36.7201 17.424 37.4561 17.656 38.2561 17.656C39.0241 17.656 39.6721 17.472 40.2001 17.104C40.7281 16.72 40.9921 16.224 40.9921 15.616C40.9921 15.168 40.8641 14.816 40.6081 14.56C40.3521 14.288 40.0561 14.08 39.7201 13.936C39.3841 13.792 39.0881 13.688 38.8321 13.624L36.9841 13.096C35.8001 12.76 34.9441 12.288 34.4161 11.68C33.8881 11.072 33.6241 10.368 33.6241 9.568C33.6241 8.816 33.8161 8.16 34.2001 7.6C34.5841 7.04 35.1041 6.608 35.7601 6.304C36.4161 6 37.1441 5.848 37.9441 5.848C39.0321 5.848 40.0161 6.136 40.8961 6.712C41.7921 7.272 42.4241 8.056 42.7921 9.064L41.2561 9.784C40.9361 9.064 40.4721 8.504 39.8641 8.104C39.2721 7.688 38.6081 7.48 37.8721 7.48C37.1521 7.48 36.5761 7.664 36.1441 8.032C35.7121 8.4 35.4961 8.864 35.4961 9.424C35.4961 9.856 35.6081 10.2 35.8321 10.456C36.0561 10.712 36.3121 10.904 36.6001 11.032C36.9041 11.16 37.1681 11.256 37.3921 11.32L39.5281 11.944C40.5681 12.248 41.3761 12.72 41.9521 13.36C42.5441 14 42.8401 14.752 42.8401 15.616C42.8401 16.32 42.6401 16.952 42.2401 17.512C41.8561 18.072 41.3201 18.512 40.6321 18.832C39.9441 19.136 39.1521 19.288 38.2561 19.288ZM49.0731 19V17.08H50.0331C50.9291 17.08 51.6331 16.816 52.1451 16.288C52.6571 15.744 52.9131 15.008 52.9131 14.08V1.12H54.8331V14.08C54.8331 15.088 54.6331 15.96 54.2331 16.696C53.8491 17.432 53.2971 18 52.5771 18.4C51.8571 18.8 51.0091 19 50.0331 19H49.0731ZM62.2686 19.288C61.4526 19.288 60.7246 19.136 60.0846 18.832C59.4446 18.512 58.9406 18.08 58.5726 17.536C58.2046 16.992 58.0206 16.368 58.0206 15.664C58.0206 14.992 58.1646 14.384 58.4526 13.84C58.7406 13.28 59.1886 12.808 59.7966 12.424C60.4046 12.04 61.1806 11.768 62.1246 11.608L67.1646 10.768V12.4L62.5566 13.168C61.6286 13.328 60.9566 13.624 60.5406 14.056C60.1406 14.488 59.9406 15 59.9406 15.592C59.9406 16.168 60.1646 16.656 60.6126 17.056C61.0766 17.456 61.6686 17.656 62.3886 17.656C63.2686 17.656 64.0366 17.472 64.6926 17.104C65.3486 16.72 65.8606 16.208 66.2286 15.568C66.5966 14.928 66.7806 14.216 66.7806 13.432V10.168C66.7806 9.4 66.5006 8.776 65.9406 8.296C65.3806 7.816 64.6526 7.576 63.7566 7.576C62.9726 7.576 62.2846 7.776 61.6926 8.176C61.1006 8.56 60.6606 9.064 60.3726 9.688L58.7406 8.8C58.9806 8.256 59.3566 7.76 59.8686 7.312C60.3966 6.864 60.9966 6.512 61.6686 6.256C62.3406 5.984 63.0366 5.848 63.7566 5.848C64.7006 5.848 65.5326 6.032 66.2526 6.4C66.9886 6.768 67.5566 7.28 67.9566 7.936C68.3726 8.576 68.5806 9.32 68.5806 10.168V19H66.7806V16.432L67.0446 16.696C66.8206 17.176 66.4686 17.616 65.9886 18.016C65.5246 18.4 64.9726 18.712 64.3326 18.952C63.7086 19.176 63.0206 19.288 62.2686 19.288ZM72.043 19V0.831999H73.843V13.552L73.075 13.432L80.299 6.136H82.627L77.587 11.296L83.083 19H80.923L75.763 11.872L76.915 11.968L73.243 15.76L73.843 14.272V19H72.043ZM88.6714 19.288C87.8554 19.288 87.1274 19.136 86.4874 18.832C85.8474 18.512 85.3434 18.08 84.9754 17.536C84.6074 16.992 84.4234 16.368 84.4234 15.664C84.4234 14.992 84.5674 14.384 84.8554 13.84C85.1434 13.28 85.5914 12.808 86.1994 12.424C86.8074 12.04 87.5834 11.768 88.5274 11.608L93.5674 10.768V12.4L88.9594 13.168C88.0314 13.328 87.3594 13.624 86.9434 14.056C86.5434 14.488 86.3434 15 86.3434 15.592C86.3434 16.168 86.5674 16.656 87.0154 17.056C87.4794 17.456 88.0714 17.656 88.7914 17.656C89.6714 17.656 90.4394 17.472 91.0954 17.104C91.7514 16.72 92.2634 16.208 92.6314 15.568C92.9994 14.928 93.1834 14.216 93.1834 13.432V10.168C93.1834 9.4 92.9034 8.776 92.3434 8.296C91.7834 7.816 91.0554 7.576 90.1594 7.576C89.3754 7.576 88.6874 7.776 88.0954 8.176C87.5034 8.56 87.0634 9.064 86.7754 9.688L85.1434 8.8C85.3834 8.256 85.7594 7.76 86.2714 7.312C86.7994 6.864 87.3994 6.512 88.0714 6.256C88.7434 5.984 89.4394 5.848 90.1594 5.848C91.1034 5.848 91.9354 6.032 92.6554 6.4C93.3914 6.768 93.9594 7.28 94.3594 7.936C94.7754 8.576 94.9834 9.32 94.9834 10.168V19H93.1834V16.432L93.4474 16.696C93.2234 17.176 92.8714 17.616 92.3914 18.016C91.9274 18.4 91.3754 18.712 90.7354 18.952C90.1114 19.176 89.4234 19.288 88.6714 19.288ZM98.4458 19V6.136H100.246V8.248L100.006 7.936C100.31 7.328 100.766 6.848 101.374 6.496C101.998 6.144 102.75 5.968 103.63 5.968H104.446V7.768H103.318C102.39 7.768 101.646 8.056 101.086 8.632C100.526 9.208 100.246 10.024 100.246 11.08V19H98.4458ZM111.235 19.144C110.083 19.144 109.195 18.808 108.571 18.136C107.947 17.464 107.635 16.504 107.635 15.256V7.936H105.259V6.136H105.859C106.403 6.136 106.835 5.96 107.155 5.608C107.475 5.24 107.635 4.784 107.635 4.24V3.16H109.435V6.136H112.267V7.936H109.435V15.256C109.435 15.688 109.499 16.072 109.627 16.408C109.755 16.728 109.971 16.984 110.275 17.176C110.595 17.368 111.019 17.464 111.547 17.464C111.675 17.464 111.827 17.456 112.003 17.44C112.179 17.424 112.331 17.408 112.459 17.392V19C112.267 19.048 112.051 19.08 111.811 19.096C111.571 19.128 111.379 19.144 111.235 19.144ZM118.866 19.288C118.05 19.288 117.322 19.136 116.682 18.832C116.042 18.512 115.538 18.08 115.17 17.536C114.802 16.992 114.618 16.368 114.618 15.664C114.618 14.992 114.762 14.384 115.05 13.84C115.338 13.28 115.786 12.808 116.394 12.424C117.002 12.04 117.778 11.768 118.722 11.608L123.762 10.768V12.4L119.154 13.168C118.226 13.328 117.554 13.624 117.138 14.056C116.738 14.488 116.538 15 116.538 15.592C116.538 16.168 116.762 16.656 117.21 17.056C117.674 17.456 118.266 17.656 118.986 17.656C119.866 17.656 120.634 17.472 121.29 17.104C121.946 16.72 122.458 16.208 122.826 15.568C123.194 14.928 123.378 14.216 123.378 13.432V10.168C123.378 9.4 123.098 8.776 122.538 8.296C121.978 7.816 121.25 7.576 120.354 7.576C119.57 7.576 118.882 7.776 118.29 8.176C117.698 8.56 117.258 9.064 116.97 9.688L115.338 8.8C115.578 8.256 115.954 7.76 116.466 7.312C116.994 6.864 117.594 6.512 118.266 6.256C118.938 5.984 119.634 5.848 120.354 5.848C121.298 5.848 122.13 6.032 122.85 6.4C123.586 6.768 124.154 7.28 124.554 7.936C124.97 8.576 125.178 9.32 125.178 10.168V19H123.378V16.432L123.642 16.696C123.418 17.176 123.066 17.616 122.586 18.016C122.122 18.4 121.57 18.712 120.93 18.952C120.306 19.176 119.618 19.288 118.866 19.288ZM138.766 19.288C137.63 19.288 136.598 19.072 135.67 18.64C134.742 18.208 133.958 17.632 133.318 16.912C132.678 16.176 132.222 15.368 131.95 14.488L133.678 13.84C134.094 15.056 134.742 15.984 135.622 16.624C136.502 17.248 137.55 17.56 138.766 17.56C139.534 17.56 140.206 17.44 140.782 17.2C141.374 16.944 141.83 16.592 142.15 16.144C142.47 15.696 142.63 15.176 142.63 14.584C142.63 13.704 142.39 13.024 141.91 12.544C141.43 12.064 140.742 11.696 139.846 11.44L136.63 10.48C135.366 10.112 134.39 9.496 133.702 8.632C133.03 7.768 132.694 6.784 132.694 5.68C132.694 4.736 132.926 3.904 133.39 3.184C133.854 2.448 134.486 1.872 135.286 1.456C136.102 1.04 137.022 0.831999 138.046 0.831999C139.118 0.831999 140.078 1.032 140.926 1.432C141.79 1.816 142.518 2.328 143.11 2.968C143.702 3.608 144.126 4.32 144.382 5.104L142.702 5.776C142.318 4.72 141.718 3.92 140.902 3.376C140.102 2.832 139.158 2.56 138.07 2.56C137.382 2.56 136.774 2.68 136.246 2.92C135.734 3.16 135.334 3.504 135.046 3.952C134.758 4.4 134.614 4.928 134.614 5.536C134.614 6.272 134.846 6.936 135.31 7.528C135.774 8.104 136.486 8.536 137.446 8.824L140.278 9.664C141.686 10.08 142.75 10.68 143.47 11.464C144.19 12.248 144.55 13.232 144.55 14.416C144.55 15.376 144.302 16.224 143.806 16.96C143.326 17.68 142.646 18.248 141.766 18.664C140.902 19.08 139.902 19.288 138.766 19.288ZM151.005 19.288C150.189 19.288 149.461 19.136 148.821 18.832C148.181 18.512 147.677 18.08 147.309 17.536C146.941 16.992 146.757 16.368 146.757 15.664C146.757 14.992 146.901 14.384 147.189 13.84C147.477 13.28 147.925 12.808 148.533 12.424C149.141 12.04 149.917 11.768 150.861 11.608L155.901 10.768V12.4L151.293 13.168C150.365 13.328 149.693 13.624 149.277 14.056C148.877 14.488 148.677 15 148.677 15.592C148.677 16.168 148.901 16.656 149.349 17.056C149.813 17.456 150.405 17.656 151.125 17.656C152.005 17.656 152.773 17.472 153.429 17.104C154.085 16.72 154.597 16.208 154.965 15.568C155.333 14.928 155.517 14.216 155.517 13.432V10.168C155.517 9.4 155.237 8.776 154.677 8.296C154.117 7.816 153.389 7.576 152.493 7.576C151.709 7.576 151.021 7.776 150.429 8.176C149.837 8.56 149.397 9.064 149.109 9.688L147.477 8.8C147.717 8.256 148.093 7.76 148.605 7.312C149.133 6.864 149.733 6.512 150.405 6.256C151.077 5.984 151.773 5.848 152.493 5.848C153.437 5.848 154.269 6.032 154.989 6.4C155.725 6.768 156.293 7.28 156.693 7.936C157.109 8.576 157.317 9.32 157.317 10.168V19H155.517V16.432L155.781 16.696C155.557 17.176 155.205 17.616 154.725 18.016C154.261 18.4 153.709 18.712 153.069 18.952C152.445 19.176 151.757 19.288 151.005 19.288ZM160.779 19V6.136H162.579V8.632L162.171 8.536C162.491 7.704 163.011 7.048 163.731 6.568C164.467 6.088 165.315 5.848 166.275 5.848C167.187 5.848 168.003 6.056 168.723 6.472C169.459 6.888 170.035 7.464 170.451 8.2C170.883 8.92 171.099 9.736 171.099 10.648V19H169.299V11.344C169.299 10.56 169.155 9.896 168.867 9.352C168.595 8.808 168.203 8.392 167.691 8.104C167.195 7.8 166.619 7.648 165.963 7.648C165.307 7.648 164.723 7.8 164.211 8.104C163.699 8.392 163.299 8.816 163.011 9.376C162.723 9.92 162.579 10.576 162.579 11.344V19H160.779ZM178.761 19.288C177.529 19.288 176.449 18.976 175.521 18.352C174.593 17.728 173.921 16.88 173.505 15.808L175.017 15.088C175.385 15.872 175.897 16.496 176.553 16.96C177.225 17.424 177.961 17.656 178.761 17.656C179.529 17.656 180.177 17.472 180.705 17.104C181.233 16.72 181.497 16.224 181.497 15.616C181.497 15.168 181.369 14.816 181.113 14.56C180.857 14.288 180.561 14.08 180.225 13.936C179.889 13.792 179.593 13.688 179.337 13.624L177.489 13.096C176.305 12.76 175.449 12.288 174.921 11.68C174.393 11.072 174.129 10.368 174.129 9.568C174.129 8.816 174.321 8.16 174.705 7.6C175.089 7.04 175.609 6.608 176.265 6.304C176.921 6 177.649 5.848 178.449 5.848C179.537 5.848 180.521 6.136 181.401 6.712C182.297 7.272 182.929 8.056 183.297 9.064L181.761 9.784C181.441 9.064 180.977 8.504 180.369 8.104C179.777 7.688 179.113 7.48 178.377 7.48C177.657 7.48 177.081 7.664 176.649 8.032C176.217 8.4 176.001 8.864 176.001 9.424C176.001 9.856 176.113 10.2 176.337 10.456C176.561 10.712 176.817 10.904 177.105 11.032C177.409 11.16 177.673 11.256 177.897 11.32L180.033 11.944C181.073 12.248 181.881 12.72 182.457 13.36C183.049 14 183.345 14.752 183.345 15.616C183.345 16.32 183.145 16.952 182.745 17.512C182.361 18.072 181.825 18.512 181.137 18.832C180.449 19.136 179.657 19.288 178.761 19.288Z" fill="white"/>
</svg>
